<svg width="14" height="15" viewBox="0 0 14 15" fill="none" xmlns="http://www.w3.org/2000/svg">
<path opacity="0.7" d="M13.7854 13.01L10.6117 9.88431C11.3758 8.88252 11.7883 7.66313 11.7869 6.41019C11.7869 3.20981 9.14306 0.606049 5.89344 0.606049C2.64382 0.606049 0 3.20981 0 6.41019C0 9.61058 2.64382 12.2143 5.89344 12.2143C7.16566 12.2157 8.4038 11.8095 9.421 11.057L12.5947 14.1826C12.7554 14.324 12.9649 14.3995 13.1803 14.3936C13.3957 14.3877 13.6006 14.3007 13.753 14.1507C13.9054 14.0006 13.9936 13.7988 13.9997 13.5867C14.0057 13.3745 13.929 13.1682 13.7854 13.01ZM1.68384 6.41019C1.68384 5.59023 1.93073 4.78868 2.39329 4.1069C2.85584 3.42512 3.51329 2.89374 4.2825 2.57996C5.0517 2.26617 5.89811 2.18407 6.71469 2.34404C7.53127 2.504 8.28135 2.89885 8.87008 3.47866C9.4588 4.05846 9.85972 4.79717 10.0222 5.60138C10.1846 6.40559 10.1012 7.23918 9.7826 7.99673C9.46399 8.75428 8.92443 9.40177 8.23217 9.85732C7.5399 10.3129 6.72602 10.556 5.89344 10.556C4.7774 10.5547 3.70745 10.1175 2.91828 9.34027C2.12912 8.56307 1.68518 7.50933 1.68384 6.41019Z" fill="white"/>
</svg>
